<svg version="1.0" xmlns="http://www.w3.org/2000/svg" width="700.000000pt" height="700.000000pt" viewBox="0 0 700.000000 700.000000" preserveAspectRatio="xMidYMid meet">
<g transform="translate(0.000000,700.000000) scale(0.100000,-0.100000)" fill="#000000" stroke="none">
<path d="M3200 6500 c-1105 -100 -2050 -750 -2550 -1750 -200 -400 -300 -850 -300 -1350 0 -500 100 -950 300 -1350 500 -1000 1445 -1650 2550 -1750 200 -18 400 -18 600 0 1105 100 2050 750 2550 1750 200 400 300 850 300 1350 0 500 -100 950 -300 1350 -500 1000 -1445 1650 -2550 1750 -200 18 -400 18 -600 0z m800 -1000 c600 -50 1100 -300 1450 -725 250 -300 400 -675 450 -1075 25 -200 25 -400 0 -600 -50 -400 -200 -775 -450 -1075 -350 -425 -850 -675 -1450 -725 -200 -25 -400 -25 -600 0 -600 50 -1100 300 -1450 725 -250 300 -400 675 -450 1075 -25 200 -25 400 0 600 50 400 200 775 450 1075 350 425 850 675 1450 725 200 25 400 25 600 0z"/>
<path d="M2800 4200 l-800 -800 800 -800 800 800 800 -800 800 800 -800 800 800 800 -800 -800 -800 800z"/>
</g>
</svg>
